<svg width="512" height="512" viewBox="0 0 512 512" fill="none" xmlns="http://www.w3.org/2000/svg">
<rect x="0.999741" y="0.999725" width="510.874" height="510.884" fill="#DEF4FD"/>
<path d="M382.014 144.881C443.562 214.273 437.192 320.409 367.785 381.942C298.379 443.474 192.219 437.102 130.671 367.71C69.1223 298.317 75.4926 192.181 144.899 130.648C214.305 69.1158 320.465 75.4877 382.014 144.881Z" stroke="#2B2B2B" stroke-width="26"/>
<path d="M109.551 340.269C12.4102 471.21 99.7555 465.032 202.033 400.486C369.178 295.002 387.096 235.239 403.963 211.706C420.83 188.173 528.232 23.5975 372.095 116.029" stroke="black" stroke-width="26" stroke-linecap="round"/>
<path d="M83.0247 318.441C65.6863 380.127 56.9975 430.291 159.275 365.745C326.42 260.261 357.487 198.552 374.353 175.019C391.22 151.486 462.744 50.3252 345.568 94.2008" stroke="black" stroke-width="26" stroke-linecap="round"/>
</svg>
